<svg xmlns="http://www.w3.org/2000/svg" xmlns:xlink="http://www.w3.org/1999/xlink" width="500" zoomAndPan="magnify" viewBox="0 0 375 374.999991" height="500" preserveAspectRatio="xMidYMid meet" version="1.0"><defs><clipPath id="7d9a1c6166"><path d="M 0 63.066406 L 375 63.066406 L 375 312 L 0 312 Z M 0 63.066406 " clip-rule="nonzero"/></clipPath></defs><path fill="#3888ff" d="M 282.601562 127.464844 C 272.746094 127.464844 263.242188 129.59375 254.378906 133.789062 L 253.050781 134.417969 L 251.871094 133.554688 C 242.75 126.914062 231.960938 123.402344 220.664062 123.402344 C 214.652344 123.402344 208.722656 124.410156 203.054688 126.398438 L 201.179688 127.058594 L 200.132812 125.375 C 186.007812 102.582031 161.597656 88.972656 134.835938 88.972656 C 95.386719 88.972656 61.804688 119.726562 58.386719 158.988281 L 58.269531 160.285156 L 57.144531 160.929688 C 38.132812 171.605469 26.324219 191.75 26.324219 213.507812 C 26.324219 246.742188 53.359375 273.777344 86.59375 273.777344 C 93.523438 273.777344 100.328125 272.605469 106.832031 270.28125 L 108.160156 269.808594 L 109.238281 270.710938 C 119.222656 279 131.867188 283.558594 144.859375 283.558594 C 159.074219 283.558594 172.617188 278.199219 183.003906 268.464844 L 184.71875 266.855469 L 186.414062 268.496094 C 198.097656 279.8125 213.46875 286.050781 229.691406 286.050781 C 230.304688 286.050781 230.917969 286.042969 231.539062 286.027344 C 250.851562 285.460938 268.496094 276.1875 279.945312 260.570312 L 280.691406 259.546875 L 282.609375 259.578125 C 319.039062 259.578125 348.667969 229.949219 348.667969 193.519531 C 348.660156 157.09375 319.03125 127.464844 282.601562 127.464844 Z M 248.609375 228.246094 C 248.609375 234.726562 243.355469 239.976562 236.878906 239.976562 L 138.105469 239.976562 C 131.628906 239.976562 126.375 234.726562 126.375 228.246094 C 126.375 221.765625 131.628906 216.515625 138.105469 216.515625 L 236.886719 216.515625 C 243.355469 216.515625 248.609375 221.765625 248.609375 228.246094 Z M 248.609375 198.835938 C 248.609375 205.3125 243.355469 210.566406 236.878906 210.566406 L 138.105469 210.566406 C 131.628906 210.566406 126.375 205.3125 126.375 198.835938 C 126.375 192.355469 131.628906 187.105469 138.105469 187.105469 L 236.886719 187.105469 C 243.355469 187.105469 248.609375 192.355469 248.609375 198.835938 Z M 248.609375 169.421875 C 248.609375 175.902344 243.355469 181.152344 236.878906 181.152344 L 138.105469 181.152344 C 131.628906 181.152344 126.375 175.902344 126.375 169.421875 C 126.375 162.945312 131.628906 157.691406 138.105469 157.691406 L 236.886719 157.691406 C 243.355469 157.691406 248.609375 162.945312 248.609375 169.421875 Z M 248.609375 169.421875 " fill-opacity="1" fill-rule="nonzero"/><g clip-path="url(#7d9a1c6166)"><path fill="#3888ff" d="M 229.683594 311.984375 C 213.84375 311.984375 198.335938 307.75 184.859375 299.742188 L 184.261719 299.382812 L 183.648438 299.71875 C 171.816406 306.117188 158.40625 309.5 144.867188 309.5 C 130.378906 309.5 116.121094 305.636719 103.636719 298.335938 L 103.234375 298.101562 L 102.777344 298.1875 C 97.460938 299.195312 92.015625 299.710938 86.59375 299.710938 C 39.058594 299.710938 0.394531 261.039062 0.394531 213.507812 C 0.394531 186.605469 12.613281 161.738281 33.921875 145.285156 L 34.28125 145.003906 L 34.371094 144.5625 C 44.394531 97.328125 86.648438 63.046875 134.84375 63.046875 C 164.691406 63.046875 191.945312 75.273438 211.582031 97.46875 L 212.003906 97.945312 L 212.632812 97.882812 C 215.289062 97.609375 217.984375 97.476562 220.65625 97.476562 C 232.550781 97.476562 244.46875 100.210938 255.109375 105.378906 L 255.546875 105.585938 L 256.011719 105.449219 C 264.582031 102.851562 273.53125 101.539062 282.601562 101.539062 C 333.324219 101.539062 374.589844 142.808594 374.589844 193.527344 C 374.589844 239.992188 339.84375 279.246094 293.757812 284.839844 L 293.324219 284.894531 L 293.019531 285.214844 C 277.046875 301.785156 255.484375 311.285156 232.300781 311.960938 C 231.414062 311.96875 230.546875 311.984375 229.683594 311.984375 Z M 185.144531 288.179688 C 198.234375 297.285156 213.640625 302.101562 229.683594 302.101562 C 230.453125 302.101562 231.222656 302.09375 232 302.070312 C 253.851562 301.433594 273.839844 292.097656 288.265625 275.789062 L 288.601562 275.417969 L 289.097656 275.378906 C 331.5 272.046875 364.71875 236.09375 364.71875 193.519531 C 364.71875 148.246094 327.886719 111.414062 282.609375 111.414062 C 273.1875 111.414062 263.964844 112.992188 255.210938 116.105469 L 254.683594 116.292969 L 254.195312 116.019531 C 244.007812 110.351562 232.410156 107.351562 220.671875 107.351562 C 216.65625 107.351562 212.617188 107.699219 208.667969 108.398438 L 207.945312 108.523438 L 207.488281 107.949219 C 189.855469 85.691406 163.378906 72.929688 134.851562 72.929688 C 90.207031 72.929688 50.875 106.140625 43.359375 150.179688 L 43.277344 150.691406 L 42.847656 150.988281 C 22.449219 165.273438 10.265625 188.648438 10.265625 213.515625 C 10.265625 255.597656 44.503906 289.835938 86.585938 289.835938 C 92.636719 289.835938 98.671875 289.121094 104.523438 287.707031 L 105.042969 287.582031 L 105.496094 287.878906 C 117.226562 295.5625 130.84375 299.625 144.859375 299.625 C 158.726562 299.625 172.1875 295.664062 183.769531 288.171875 L 184.46875 287.722656 Z M 185.144531 288.179688 " fill-opacity="1" fill-rule="nonzero"/></g><path fill="#3888ff" d="M 229.355469 221.230469 C 225.480469 221.230469 222.34375 224.371094 222.34375 228.246094 C 222.34375 232.121094 225.480469 235.261719 229.355469 235.261719 C 233.234375 235.261719 236.371094 232.121094 236.371094 228.246094 C 236.371094 224.378906 233.234375 221.230469 229.355469 221.230469 Z M 229.355469 232.960938 C 226.761719 232.960938 224.648438 230.847656 224.648438 228.253906 C 224.648438 225.660156 226.761719 223.546875 229.355469 223.546875 C 231.953125 223.546875 234.066406 225.660156 234.066406 228.253906 C 234.074219 230.847656 231.960938 232.960938 229.355469 232.960938 Z M 229.355469 232.960938 " fill-opacity="1" fill-rule="nonzero"/><path fill="#3888ff" d="M 142.277344 174.683594 C 142.277344 175.367188 141.726562 175.925781 141.058594 175.925781 C 140.390625 175.925781 139.839844 175.367188 139.839844 174.683594 L 139.839844 164.164062 C 139.839844 163.480469 140.390625 162.921875 141.058594 162.921875 C 141.726562 162.921875 142.277344 163.480469 142.277344 164.164062 Z M 142.277344 174.683594 " fill-opacity="1" fill-rule="nonzero"/><path fill="#3888ff" d="M 148.019531 174.683594 C 148.019531 175.367188 147.46875 175.925781 146.800781 175.925781 C 146.132812 175.925781 145.582031 175.367188 145.582031 174.683594 L 145.582031 164.164062 C 145.582031 163.480469 146.132812 162.921875 146.800781 162.921875 C 147.46875 162.921875 148.019531 163.480469 148.019531 164.164062 Z M 148.019531 174.683594 " fill-opacity="1" fill-rule="nonzero"/><path fill="#3888ff" d="M 153.871094 174.683594 C 153.871094 175.367188 153.316406 175.925781 152.648438 175.925781 C 151.980469 175.925781 151.429688 175.367188 151.429688 174.683594 L 151.429688 164.164062 C 151.429688 163.480469 151.980469 162.921875 152.648438 162.921875 C 153.316406 162.921875 153.871094 163.480469 153.871094 164.164062 Z M 153.871094 174.683594 " fill-opacity="1" fill-rule="nonzero"/><path fill="#3888ff" d="M 142.214844 204.09375 C 142.214844 204.777344 141.664062 205.335938 140.996094 205.335938 C 140.328125 205.335938 139.777344 204.777344 139.777344 204.09375 L 139.777344 193.574219 C 139.777344 192.890625 140.328125 192.332031 140.996094 192.332031 C 141.664062 192.332031 142.214844 192.890625 142.214844 193.574219 Z M 142.214844 204.09375 " fill-opacity="1" fill-rule="nonzero"/><path fill="#3888ff" d="M 147.957031 204.09375 C 147.957031 204.777344 147.40625 205.335938 146.738281 205.335938 C 146.070312 205.335938 145.519531 204.777344 145.519531 204.09375 L 145.519531 193.574219 C 145.519531 192.890625 146.070312 192.332031 146.738281 192.332031 C 147.40625 192.332031 147.957031 192.890625 147.957031 193.574219 Z M 147.957031 204.09375 " fill-opacity="1" fill-rule="nonzero"/><path fill="#3888ff" d="M 153.808594 204.09375 C 153.808594 204.777344 153.257812 205.335938 152.585938 205.335938 C 151.917969 205.335938 151.367188 204.777344 151.367188 204.09375 L 151.367188 193.574219 C 151.367188 192.890625 151.917969 192.332031 152.585938 192.332031 C 153.257812 192.332031 153.808594 192.890625 153.808594 193.574219 Z M 153.808594 204.09375 " fill-opacity="1" fill-rule="nonzero"/><path fill="#3888ff" d="M 142.15625 233.511719 C 142.15625 234.195312 141.601562 234.757812 140.933594 234.757812 C 140.265625 234.757812 139.714844 234.195312 139.714844 233.511719 L 139.714844 222.996094 C 139.714844 222.3125 140.265625 221.75 140.933594 221.75 C 141.601562 221.75 142.15625 222.3125 142.15625 222.996094 Z M 142.15625 233.511719 " fill-opacity="1" fill-rule="nonzero"/><path fill="#3888ff" d="M 147.894531 233.511719 C 147.894531 234.195312 147.34375 234.757812 146.675781 234.757812 C 146.007812 234.757812 145.457031 234.195312 145.457031 233.511719 L 145.457031 222.996094 C 145.457031 222.3125 146.007812 221.75 146.675781 221.75 C 147.34375 221.75 147.894531 222.3125 147.894531 222.996094 Z M 147.894531 233.511719 " fill-opacity="1" fill-rule="nonzero"/><path fill="#3888ff" d="M 153.746094 233.511719 C 153.746094 234.195312 153.195312 234.757812 152.527344 234.757812 C 151.859375 234.757812 151.304688 234.195312 151.304688 233.511719 L 151.304688 222.996094 C 151.304688 222.3125 151.859375 221.75 152.527344 221.75 C 153.195312 221.75 153.746094 222.3125 153.746094 222.996094 Z M 153.746094 233.511719 " fill-opacity="1" fill-rule="nonzero"/><path fill="#3888ff" d="M 229.355469 191.820312 C 225.480469 191.820312 222.34375 194.957031 222.34375 198.835938 C 222.34375 202.710938 225.480469 205.847656 229.355469 205.847656 C 233.234375 205.847656 236.371094 202.710938 236.371094 198.835938 C 236.371094 194.957031 233.234375 191.820312 229.355469 191.820312 Z M 229.355469 203.542969 C 226.761719 203.542969 224.648438 201.429688 224.648438 198.835938 C 224.648438 196.238281 226.761719 194.125 229.355469 194.125 C 231.953125 194.125 234.066406 196.238281 234.066406 198.835938 C 234.074219 201.429688 231.960938 203.542969 229.355469 203.542969 Z M 229.355469 203.542969 " fill-opacity="1" fill-rule="nonzero"/><path fill="#3888ff" d="M 229.355469 162.398438 C 225.480469 162.398438 222.34375 165.539062 222.34375 169.414062 C 222.34375 173.292969 225.480469 176.429688 229.355469 176.429688 C 233.234375 176.429688 236.371094 173.292969 236.371094 169.414062 C 236.371094 165.546875 233.234375 162.398438 229.355469 162.398438 Z M 229.355469 174.128906 C 226.761719 174.128906 224.648438 172.015625 224.648438 169.421875 C 224.648438 166.828125 226.761719 164.714844 229.355469 164.714844 C 231.953125 164.714844 234.066406 166.828125 234.066406 169.421875 C 234.074219 172.015625 231.960938 174.128906 229.355469 174.128906 Z M 229.355469 174.128906 " fill-opacity="1" fill-rule="nonzero"/></svg>